<?xml version="1.0" encoding="UTF-8"?>
<svg version="1.1" xmlns="http://www.w3.org/2000/svg" width="320" height="320">
<path d="M0 0 C105.6 0 211.2 0 320 0 C320 105.6 320 211.2 320 320 C214.4 320 108.8 320 0 320 C0 214.4 0 108.8 0 0 Z " fill="#000000" transform="translate(0,0)"/>
<path d="M0 0 C3.93936444 0.55680063 6.40019641 1.69498575 9.625 4 C12.17796131 5.81234113 14.00688125 7.00229375 17 8 C17 8.66 17 9.32 17 10 C17.515625 10.0825 18.03125 10.165 18.5625 10.25 C22.04455732 11.32140225 24.87200885 13.13523605 28 15 C28 15.99 28 16.98 28 18 C33.28 18 38.56 18 44 18 C44 23 44 23 42.13671875 25.0625 C41.32847656 25.701875 40.52023438 26.34125 39.6875 27 C36.23704101 29.75592216 34.14945275 32.14663932 32 36 C31.48228027 36.58168945 30.96456055 37.16337891 30.43115234 37.76269531 C28.52388905 40.744299 28.65721786 42.77672848 28.70703125 46.296875 C28.71669922 47.50214844 28.72636719 48.70742187 28.73632812 49.94921875 C28.76146484 51.20347656 28.78660156 52.45773438 28.8125 53.75 C28.82603516 55.01972656 28.83957031 56.28945312 28.85351562 57.59765625 C28.8888676 60.73219844 28.93821752 63.86588545 29 67 C29.33 67 29.66 67 30 67 C29.99097656 66.443125 29.98195313 65.88625 29.97265625 65.3125 C30.21433187 59.09197972 32.05458639 56.0072828 36.30859375 51.53125 C39.7988642 48.37146705 42.99948877 48.79938125 47.51171875 48.83203125 C50.32773943 49.0221237 52.5090036 49.67146859 55 51 C55 50.34 55 49.68 55 49 C55.66 49 56.32 49 57 49 C57 51.97 57 54.94 57 58 C54 57 54 57 52.9375 55 C52.628125 54.34 52.31875 53.68 52 53 C49.22899606 51.61449803 47.0665294 51.8122533 44 52 C40.9471358 53.61464731 40.9471358 53.61464731 40.32421875 55.7890625 C39.3656572 62.32575934 39.34944056 68.8705813 42 75 C46.455 74.505 46.455 74.505 51 74 C51.33 71.69 51.66 69.38 52 67 C51.01 67 50.02 67 49 67 C49 66.34 49 65.68 49 65 C52.96 65 56.92 65 61 65 C61 65.66 61 66.32 61 67 C60.34 67 59.68 67 59 67 C59 69.64 59 72.28 59 75 C52.3680572 77.04059779 45.93102434 77.83530279 39 77 C35.75 75.125 35.75 75.125 34 73 C34 72.34 34 71.68 34 71 C32.68 71.33 31.36 71.66 30 72 C30.66 72.33 31.32 72.66 32 73 C31.67 73.99 31.34 74.98 31 76 C30.34 76 29.68 76 29 76 C28.67 76.66 28.34 77.32 28 78 C25.03 78 22.06 78 19 78 C19 76.68 19 75.36 19 74 C18.47438477 74.65194336 17.94876953 75.30388672 17.40722656 75.97558594 C14.26168451 78.62090386 12.55124002 78.464568 8.484375 78.390625 C7.23398438 78.37773437 5.98359375 78.36484375 4.6953125 78.3515625 C3.39335937 78.31804687 2.09140625 78.28453125 0.75 78.25 C-0.56742187 78.23195313 -1.88484375 78.21390625 -3.2421875 78.1953125 C-6.49552308 78.14816271 -9.74739625 78.08236044 -13 78 C-12.505 76.515 -12.505 76.515 -12 75 C-11.01 74.67 -10.02 74.34 -9 74 C-9 66.74 -9 59.48 -9 52 C-10.485 51.505 -10.485 51.505 -12 51 C-12 50.01 -12 49.02 -12 48 C-7.05 47.505 -7.05 47.505 -2 47 C-1.67 45.68 -1.34 44.36 -1 43 C-2.0194873 43 -3.03897461 43 -4.08935547 43 C-15.05957031 43 -26.02978516 43 -37 43 C-37.66 43.66 -38.32 44.32 -39 45 C-39.66 44.34 -40.32 43.68 -41 43 C-41 41.68 -41 40.36 -41 39 C-41.66 39 -42.32 39 -43 39 C-43.27714844 38.14535156 -43.55429688 37.29070312 -43.83984375 36.41015625 C-44.20207031 35.30542969 -44.56429687 34.20070312 -44.9375 33.0625 C-45.29714844 31.96035156 -45.65679687 30.85820312 -46.02734375 29.72265625 C-46.73856668 27.11876525 -46.73856668 27.11876525 -48 26 C-48.33 30.62 -48.66 35.24 -49 40 C-47.68 40.33 -46.36 40.66 -45 41 C-45 41.66 -45 42.32 -45 43 C-62.49 43 -79.98 43 -98 43 C-98 42.34 -98 41.68 -98 41 C-96.515 40.505 -96.515 40.505 -95 40 C-94.94213332 36.20839703 -94.90644946 32.41690689 -94.875 28.625 C-94.85824219 27.54476562 -94.84148437 26.46453125 -94.82421875 25.3515625 C-94.81777344 24.3203125 -94.81132813 23.2890625 -94.8046875 22.2265625 C-94.79421387 21.27346191 -94.78374023 20.32036133 -94.77294922 19.33837891 C-94.76868133 16.8076787 -94.76868133 16.8076787 -97 15 C-93.7 15 -90.4 15 -87 15 C-86.67 22.92 -86.34 30.84 -86 39 C-83.36 39 -80.72 39 -78 39 C-76.1375562 36.59141286 -76.1375562 36.59141286 -75 34 C-74.01 34 -73.02 34 -72 34 C-72 36.31 -72 38.62 -72 41 C-70.515 40.505 -70.515 40.505 -69 40 C-68.67 32.08 -68.34 24.16 -68 16 C-68.99 16 -69.98 16 -71 16 C-71 15.34 -71 14.68 -71 14 C-62.31238511 13.34344611 -53.71782637 12.83688059 -45 13 C-44.7525 13.78375 -44.505 14.5675 -44.25 15.375 C-41.3259261 24.02316181 -41.3259261 24.02316181 -37 32 C-36.61908203 30.93072266 -36.61908203 30.93072266 -36.23046875 29.83984375 C-35.88628906 28.88207031 -35.54210937 27.92429688 -35.1875 26.9375 C-34.85105469 25.99777344 -34.51460937 25.05804688 -34.16796875 24.08984375 C-32.88129609 20.6859706 -31.4334484 17.34471293 -30 14 C-15.645 13.505 -15.645 13.505 -1 13 C-1 9.37 -1 5.74 -1 2 C-0.67 1.34 -0.34 0.68 0 0 Z " fill="#090504" transform="translate(150,123)"/>
<path d="M0 0 C3.93936444 0.55680063 6.40019641 1.69498575 9.625 4 C12.17796131 5.81234113 14.00688125 7.00229375 17 8 C17 8.66 17 9.32 17 10 C17.515625 10.0825 18.03125 10.165 18.5625 10.25 C22.04455732 11.32140225 24.87200885 13.13523605 28 15 C28 15.99 28 16.98 28 18 C33.28 18 38.56 18 44 18 C44 23 44 23 42.13671875 25.0625 C41.32847656 25.701875 40.52023438 26.34125 39.6875 27 C36.22604794 29.76470245 34.18424242 32.15854416 32 36 C30.98377563 37.05803833 30.98377563 37.05803833 29.94702148 38.13745117 C27.42193292 41.84988546 27.39762633 45.02305613 27.390625 49.36328125 C27.37408875 50.15526413 27.35755249 50.94724701 27.34051514 51.76322937 C27.29213428 54.27973257 27.27068725 56.79563196 27.25 59.3125 C27.22183187 61.02411876 27.19190325 62.73570951 27.16015625 64.44726562 C27.08637853 68.63146067 27.03674382 72.8153225 27 77 C24.69 77 22.38 77 20 77 C19.96241577 75.39560059 19.96241577 75.39560059 19.92407227 73.75878906 C19.82980472 69.78536273 19.72963142 65.81210332 19.62768555 61.83886719 C19.58440984 60.12015695 19.54272959 58.40140576 19.50268555 56.68261719 C19.44480435 54.210161 19.38116164 51.73790953 19.31640625 49.265625 C19.29969376 48.49881409 19.28298126 47.73200317 19.26576233 46.94195557 C19.12754521 41.89066221 19.12754521 41.89066221 18 37 C16.68641596 36.29521691 15.35022445 35.6317564 14 35 C12.40234375 33.16015625 12.40234375 33.16015625 10.9375 31.0625 C9.48807392 29.00562214 8.1414454 27.13877662 6.34375 25.375 C5 24 5 24 4.5625 21.9375 C4.17549168 19.78826429 4.17549168 19.78826429 1.9375 18.75 C1.298125 18.5025 0.65875 18.255 0 18 C0 17.34 0 16.68 0 16 C-2.64 16 -5.28 16 -8 16 C-8 19.63 -8 23.26 -8 27 C-6.68 26.67 -5.36 26.34 -4 26 C-3.67 25.01 -3.34 24.02 -3 23 C-2.01 23 -1.02 23 0 23 C0 26.3 0 29.6 0 33 C-0.66 33 -1.32 33 -2 33 C-2.66 32.01 -3.32 31.02 -4 30 C-5.32 29.67 -6.64 29.34 -8 29 C-8 32.3 -8 35.6 -8 39 C-2.97268137 39.34935225 -2.97268137 39.34935225 2 39 C4.08216876 36.6450037 4.08216876 36.6450037 5 34 C5.66 34 6.32 34 7 34 C7 36.64 7 39.28 7 42 C-1.25 42 -9.5 42 -18 42 C-17.01 41.34 -16.02 40.68 -15 40 C-14.55077108 37.61390445 -14.55077108 37.61390445 -14.63671875 34.84375 C-14.63768555 33.31041016 -14.63768555 33.31041016 -14.63867188 31.74609375 C-14.65478516 30.67488281 -14.67089844 29.60367188 -14.6875 28.5 C-14.68427734 27.42878906 -14.68105469 26.35757813 -14.67773438 25.25390625 C-14.32919872 19.56814153 -14.32919872 19.56814153 -17 15 C-11.06 15 -5.12 15 1 15 C1 14.34 1 13.68 1 13 C0.34 13 -0.32 13 -1 13 C-1.02696365 11.20841511 -1.04637917 9.41671527 -1.0625 7.625 C-1.07410156 6.62726563 -1.08570313 5.62953125 -1.09765625 4.6015625 C-1 2 -1 2 0 0 Z " fill="#E00316" transform="translate(150,123)"/>
<path d="M0 0 C0.2475 0.78375 0.495 1.5675 0.75 2.375 C3.6740739 11.02316181 3.6740739 11.02316181 8 19 C8.25394531 18.27554688 8.50789063 17.55109375 8.76953125 16.8046875 C10.58746784 11.69812405 12.42102365 6.77110625 15 2 C17.64 2 20.28 2 23 2 C22.67 2.66 22.34 3.32 22 4 C21.73327184 7.64003111 21.76846282 11.28878599 21.75 14.9375 C21.729375 15.95263672 21.70875 16.96777344 21.6875 18.01367188 C21.68234375 18.98755859 21.6771875 19.96144531 21.671875 20.96484375 C21.6625293 21.8580835 21.65318359 22.75132324 21.64355469 23.67163086 C21.82940522 26.42136605 21.82940522 26.42136605 25 29 C20.38 29 15.76 29 11 29 C12.32 28.34 13.64 27.68 15 27 C14.67 22.38 14.34 17.76 14 13 C11.62752587 18.31761443 9.27995784 23.64209908 7 29 C6.01 29 5.02 29 4 29 C4 28.01 4 27.02 4 26 C3.34 26 2.68 26 2 26 C1.72285156 25.14535156 1.44570312 24.29070312 1.16015625 23.41015625 C0.79792969 22.30542969 0.43570313 21.20070312 0.0625 20.0625 C-0.29714844 18.96035156 -0.65679687 17.85820312 -1.02734375 16.72265625 C-1.73856668 14.11876525 -1.73856668 14.11876525 -3 13 C-3.33 17.62 -3.66 22.24 -4 27 C-2.68 27.33 -1.36 27.66 0 28 C0 28.66 0 29.32 0 30 C-17.49 30 -34.98 30 -53 30 C-53 29.34 -53 28.68 -53 28 C-52.01 27.67 -51.02 27.34 -50 27 C-49.94213332 23.20839703 -49.90644946 19.41690689 -49.875 15.625 C-49.85824219 14.54476562 -49.84148438 13.46453125 -49.82421875 12.3515625 C-49.81777344 11.3203125 -49.81132813 10.2890625 -49.8046875 9.2265625 C-49.79421387 8.27346191 -49.78374023 7.32036133 -49.77294922 6.33837891 C-49.76868133 3.8076787 -49.76868133 3.8076787 -52 2 C-48.7 2 -45.4 2 -42 2 C-41.67 9.92 -41.34 17.84 -41 26 C-38.36 26 -35.72 26 -33 26 C-31.1375562 23.59141286 -31.1375562 23.59141286 -30 21 C-29.01 21 -28.02 21 -27 21 C-27 23.31 -27 25.62 -27 28 C-26.01 27.67 -25.02 27.34 -24 27 C-23.67 19.08 -23.34 11.16 -23 3 C-23.99 3 -24.98 3 -26 3 C-26 2.34 -26 1.68 -26 1 C-17.31238511 0.34344611 -8.71782637 -0.16311941 0 0 Z " fill="#201E14" transform="translate(105,136)"/>
<path d="M0 0 C3.93936444 0.55680063 6.40019641 1.69498575 9.625 4 C12.17796131 5.81234113 14.00688125 7.00229375 17 8 C17 8.66 17 9.32 17 10 C17.556875 10.103125 18.11375 10.20625 18.6875 10.3125 C21.44176578 11.13133577 23.58727657 12.45853781 26 14 C26 16.75 26 16.75 25 20 C20.46393112 23.65098227 15.73784627 24.54130625 10 24 C8.32442621 23.71479595 6.65182755 23.40044304 5 23 C4.67 22.01 4.34 21.02 4 20 C1.99983534 18.79117904 1.99983534 18.79117904 0 18 C0 17.34 0 16.68 0 16 C-2.64 16 -5.28 16 -8 16 C-8 19.63 -8 23.26 -8 27 C-6.68 26.67 -5.36 26.34 -4 26 C-3.67 25.01 -3.34 24.02 -3 23 C-2.01 23 -1.02 23 0 23 C0 26.3 0 29.6 0 33 C-0.66 33 -1.32 33 -2 33 C-2.66 32.01 -3.32 31.02 -4 30 C-5.32 29.67 -6.64 29.34 -8 29 C-8 32.3 -8 35.6 -8 39 C-2.97268137 39.34935225 -2.97268137 39.34935225 2 39 C4.08216876 36.6450037 4.08216876 36.6450037 5 34 C5.66 34 6.32 34 7 34 C7 36.64 7 39.28 7 42 C-1.25 42 -9.5 42 -18 42 C-17.01 41.34 -16.02 40.68 -15 40 C-14.55077108 37.61390445 -14.55077108 37.61390445 -14.63671875 34.84375 C-14.63768555 33.31041016 -14.63768555 33.31041016 -14.63867188 31.74609375 C-14.65478516 30.67488281 -14.67089844 29.60367188 -14.6875 28.5 C-14.68427734 27.42878906 -14.68105469 26.35757813 -14.67773438 25.25390625 C-14.32919872 19.56814153 -14.32919872 19.56814153 -17 15 C-11.06 15 -5.12 15 1 15 C1 14.34 1 13.68 1 13 C0.34 13 -0.32 13 -1 13 C-1.02696365 11.20841511 -1.04637917 9.41671527 -1.0625 7.625 C-1.07410156 6.62726563 -1.08570313 5.62953125 -1.09765625 4.6015625 C-1 2 -1 2 0 0 Z " fill="#F9EE47" transform="translate(150,123)"/>
<path d="M0 0 C3.3 0 6.6 0 10 0 C11.90629186 4.35723853 13.66668415 8.71944676 15.25390625 13.203125 C16.05056744 15.28517715 16.05056744 15.28517715 18 18 C18.25394531 17.27554688 18.50789063 16.55109375 18.76953125 15.8046875 C20.58746784 10.69812405 22.42102365 5.77110625 25 1 C27.64 1 30.28 1 33 1 C32.67 1.66 32.34 2.32 32 3 C31.73327184 6.64003111 31.76846282 10.28878599 31.75 13.9375 C31.729375 14.95263672 31.70875 15.96777344 31.6875 17.01367188 C31.68234375 17.98755859 31.6771875 18.96144531 31.671875 19.96484375 C31.6625293 20.8580835 31.65318359 21.75132324 31.64355469 22.67163086 C31.82940522 25.42136605 31.82940522 25.42136605 35 28 C30.38 28 25.76 28 21 28 C22.32 27.34 23.64 26.68 25 26 C24.67 21.38 24.34 16.76 24 12 C21.62752587 17.31761443 19.27995784 22.64209908 17 28 C16.01 28 15.02 28 14 28 C14 27.01 14 26.02 14 25 C13.34 25 12.68 25 12 25 C11.72285156 24.14535156 11.44570312 23.29070312 11.16015625 22.41015625 C10.61681641 20.75306641 10.61681641 20.75306641 10.0625 19.0625 C9.70285156 17.96035156 9.34320313 16.85820312 8.97265625 15.72265625 C8.26143332 13.11876525 8.26143332 13.11876525 7 12 C6.67 16.62 6.34 21.24 6 26 C6.99 26 7.98 26 9 26 C9 26.66 9 27.32 9 28 C6.03 28 3.06 28 0 28 C0.33 27.34 0.66 26.68 1 26 C1.66 26 2.32 26 3 26 C3 18.08 3 10.16 3 2 C2.01 2 1.02 2 0 2 C0 1.34 0 0.68 0 0 Z " fill="#EFF0A5" transform="translate(95,137)"/>
<path d="M0 0 C4.62 0 9.24 0 14 0 C14 0.66 14 1.32 14 2 C13.01 2 12.02 2 11 2 C11 5.63 11 9.26 11 13 C14.96 13 18.92 13 23 13 C23 9.37 23 5.74 23 2 C21.68 2 20.36 2 19 2 C19 1.34 19 0.68 19 0 C23.62 0 28.24 0 33 0 C33 0.66 33 1.32 33 2 C32.34 2 31.68 2 31 2 C30.67 9.92 30.34 17.84 30 26 C31.32 26 32.64 26 34 26 C34 26.66 34 27.32 34 28 C29.38 28 24.76 28 20 28 C20.66 27.34 21.32 26.68 22 26 C22.46290221 23.33757179 22.46290221 23.33757179 22.625 20.375 C22.810625 17.714375 22.810625 17.714375 23 15 C19.04 15 15.08 15 11 15 C11 18.63 11 22.26 11 26 C11.99 26 12.98 26 14 26 C14 26.66 14 27.32 14 28 C9.38 28 4.76 28 0 28 C0 27.34 0 26.68 0 26 C0.99 25.67 1.98 25.34 3 25 C3 17.74 3 10.48 3 3 C2.01 2.67 1.02 2.34 0 2 C0 1.34 0 0.68 0 0 Z " fill="#928143" transform="translate(213,172)"/>
<path d="M0 0 C0.495 0.99 0.495 0.99 1 2 C-6.92 2.495 -6.92 2.495 -15 3 C-14.67 3.33 -14.34 3.66 -14 4 C-13.90067847 5.69558726 -13.86919993 7.39525747 -13.8671875 9.09375 C-13.86525391 10.63869141 -13.86525391 10.63869141 -13.86328125 12.21484375 C-13.86714844 13.29894531 -13.87101562 14.38304687 -13.875 15.5 C-13.86919922 17.12615234 -13.86919922 17.12615234 -13.86328125 18.78515625 C-13.86457031 19.81511719 -13.86585938 20.84507812 -13.8671875 21.90625 C-13.86831543 22.85822266 -13.86944336 23.81019531 -13.87060547 24.79101562 C-14 27 -14 27 -15 28 C-8.07 28.33 -1.14 28.66 6 29 C6 29.33 6 29.66 6 30 C-8.33333333 30 -22.66666667 30 -37 30 C-37.66 30.66 -38.32 31.32 -39 32 C-39.66 31.01 -40.32 30.02 -41 29 C-40.01 29 -39.02 29 -38 29 C-37.87367187 28.27941406 -37.74734375 27.55882812 -37.6171875 26.81640625 C-37.00908914 24.04147639 -36.17616931 21.57357187 -35.125 18.9375 C-34.79757813 18.10089844 -34.47015625 17.26429688 -34.1328125 16.40234375 C-33 14 -33 14 -30 10 C-30 15.61 -30 21.22 -30 27 C-30.66 27.33 -31.32 27.66 -32 28 C-28.7 28 -25.4 28 -22 28 C-22.66 27.34 -23.32 26.68 -24 26 C-24.24291992 23.76928711 -24.24291992 23.76928711 -24.23046875 21.02734375 C-24.22853516 20.04572266 -24.22660156 19.06410156 -24.22460938 18.05273438 C-24.20624023 16.51069336 -24.20624023 16.51069336 -24.1875 14.9375 C-24.18685547 13.90560547 -24.18621094 12.87371094 -24.18554688 11.81054688 C-24.14015997 4.14015997 -24.14015997 4.14015997 -23 3 C-25.31 2.67 -27.62 2.34 -30 2 C-30 1.67 -30 1.34 -30 1 C-20.1 0.67 -10.2 0.34 0 0 Z " fill="#050303" transform="translate(150,136)"/>
<path d="M0 0 C3.125 1 3.125 1 5 2 C5 1.34 5 0.68 5 0 C5.66 0 6.32 0 7 0 C7 2.97 7 5.94 7 9 C4 8 4 8 2.9375 6 C2.4734375 5.01 2.4734375 5.01 2 4 C-0.77100394 2.61449803 -2.9334706 2.8122533 -6 3 C-9.0528642 4.61464731 -9.0528642 4.61464731 -9.67578125 6.7890625 C-10.6343428 13.32575934 -10.65055944 19.8705813 -8 26 C-5.03 25.67 -2.06 25.34 1 25 C1.33 22.69 1.66 20.38 2 18 C1.01 18 0.02 18 -1 18 C-1 17.34 -1 16.68 -1 16 C2.96 16 6.92 16 11 16 C11 16.66 11 17.32 11 18 C10.34 18 9.68 18 9 18 C9 20.64 9 23.28 9 26 C2.36060846 28.0428897 -4.06109662 28.81869076 -11 28 C-14.74977947 25.9001235 -16.3525429 23.88685766 -18 20 C-18.83868746 14.10740367 -17.96210779 9.20922405 -15 4 C-10.80558966 -0.9570304 -6.05552042 -0.69489579 0 0 Z " fill="#BEAB79" transform="translate(200,172)"/>
<path d="M0 0 C9.24 0 18.48 0 28 0 C28 2.97 28 5.94 28 9 C27.01 9 26.02 9 25 9 C24.67 7.35 24.34 5.7 24 4 C21.69 3.34 19.38 2.68 17 2 C17 9.92 17 17.84 17 26 C18.32 26 19.64 26 21 26 C21 26.66 21 27.32 21 28 C16.05 28 11.1 28 6 28 C6 27.34 6 26.68 6 26 C7.32 26 8.64 26 10 26 C10 18.41 10 10.82 10 3 C7.69 3.33 5.38 3.66 3 4 C1.48705712 5.93597032 1.48705712 5.93597032 1 8 C0.67 8 0.34 8 0 8 C0 5.36 0 2.72 0 0 Z " fill="#A5904C" transform="translate(248,172)"/>
<path d="M0 0 C5.61 0 11.22 0 17 0 C17 0.33 17 0.66 17 1 C14.36 1 11.72 1 9 1 C9 4.63 9 8.26 9 12 C10.32 11.67 11.64 11.34 13 11 C13.33 10.01 13.66 9.02 14 8 C14.99 8 15.98 8 17 8 C17 11.3 17 14.6 17 18 C16.34 18 15.68 18 15 18 C14.34 17.01 13.68 16.02 13 15 C11.68 14.67 10.36 14.34 9 14 C9 17.3 9 20.6 9 24 C14.02731863 24.34935225 14.02731863 24.34935225 19 24 C21.08216876 21.6450037 21.08216876 21.6450037 22 19 C22.66 19 23.32 19 24 19 C24 21.64 24 24.28 24 27 C15.75 27 7.5 27 -1 27 C-0.01 26.34 0.98 25.68 2 25 C2.44922892 22.61390445 2.44922892 22.61390445 2.36328125 19.84375 C2.36231445 18.31041016 2.36231445 18.31041016 2.36132812 16.74609375 C2.34521484 15.67488281 2.32910156 14.60367188 2.3125 13.5 C2.31572266 12.42878906 2.31894531 11.35757813 2.32226562 10.25390625 C2.67080128 4.56814153 2.67080128 4.56814153 0 0 Z " fill="#FCFCAE" transform="translate(133,138)"/>
<path d="M0 0 C2.64 0 5.28 0 8 0 C8 12.54 8 25.08 8 38 C5.69 38 3.38 38 1 38 C0.67 25.46 0.34 12.92 0 0 Z " fill="#B3934D" transform="translate(169,162)"/>
<path d="M0 0 C0.33 0 0.66 0 1 0 C1 7.26 1 14.52 1 22 C-0.32 22.33 -1.64 22.66 -3 23 C-3 23.66 -3 24.32 -3 25 C1.62 25 6.24 25 11 25 C11 24.34 11 23.68 11 23 C10.01 23 9.02 23 8 23 C8 19.37 8 15.74 8 12 C11.96 12 15.92 12 20 12 C20.09765625 20.49609375 20.09765625 20.49609375 20 23 C19.505 23.495 19.505 23.495 19 24 C22.63 24.33 26.26 24.66 30 25 C30 25.33 30 25.66 30 26 C-8.375 26 -8.375 26 -15 25 C-11.77208445 22.8480563 -10.71599191 22.79913557 -7 23 C-7 20.36 -7 17.72 -7 15 C-6.34 15 -5.68 15 -5 15 C-4.67 14.34 -4.34 13.68 -4 13 C-4 13.99 -4 14.98 -4 16 C-4.66 16 -5.32 16 -6 16 C-5.67 17.32 -5.34 18.64 -5 20 C-4.01 19.67 -3.02 19.34 -2 19 C-0.3501993 15.70039859 -0.61741639 12.00872116 -0.4375 8.375 C-0.39431641 7.57320312 -0.35113281 6.77140625 -0.30664062 5.9453125 C-0.20048543 3.9637489 -0.09973145 1.98189729 0 0 Z " fill="#14110A" transform="translate(216,175)"/>
<path d="M0 0 C4.62 0 9.24 0 14 0 C14 0.66 14 1.32 14 2 C13.01 2.33 12.02 2.66 11 3 C10.97112186 6.47914941 10.95324313 9.95826831 10.9375 13.4375 C10.92912109 14.43072266 10.92074219 15.42394531 10.91210938 16.44726562 C10.90888672 17.39150391 10.90566406 18.33574219 10.90234375 19.30859375 C10.89710693 20.18314209 10.89187012 21.05769043 10.88647461 21.95874023 C10.77215191 23.99440206 10.77215191 23.99440206 12 25 C13.68608966 25.07205511 15.37500659 25.08386068 17.0625 25.0625 C17.98160156 25.05347656 18.90070313 25.04445312 19.84765625 25.03515625 C20.55792969 25.02355469 21.26820313 25.01195312 22 25 C22.33 23.35 22.66 21.7 23 20 C23.66 20 24.32 20 25 20 C25 22.64 25 25.28 25 28 C16.75 28 8.5 28 0 28 C0 27.34 0 26.68 0 26 C0.99 25.67 1.98 25.34 3 25 C3 17.74 3 10.48 3 3 C2.01 2.67 1.02 2.34 0 2 C0 1.34 0 0.68 0 0 Z " fill="#C5AE57" transform="translate(138,172)"/>
<path d="M0 0 C3.3 0 6.6 0 10 0 C10.33 7.92 10.66 15.84 11 24 C13.64 24 16.28 24 19 24 C20.91256712 22.11922127 20.91256712 22.11922127 22 20 C22.66 20 23.32 20 24 20 C24 22.31 24 24.62 24 27 C15.75 27 7.5 27 -1 27 C-0.01 26.34 0.98 25.68 2 25 C2.44922892 22.61390445 2.44922892 22.61390445 2.36328125 19.84375 C2.36231445 18.31041016 2.36231445 18.31041016 2.36132812 16.74609375 C2.34521484 15.67488281 2.32910156 14.60367188 2.3125 13.5 C2.31572266 12.42878906 2.31894531 11.35757813 2.32226562 10.25390625 C2.67080128 4.56814153 2.67080128 4.56814153 0 0 Z " fill="#F9F8AE" transform="translate(53,138)"/>
<path d="M0 0 C0.66 0.33 1.32 0.66 2 1 C2 1.99 2 2.98 2 4 C7.28 4 12.56 4 18 4 C18 9 18 9 16.13671875 11.0625 C15.32847656 11.701875 14.52023438 12.34125 13.6875 13 C10.23745348 15.75559271 8.17379363 18.16498339 6 22 C4.37163262 23.7041054 2.71230248 25.38025441 1 27 C1 26.34 1 25.68 1 25 C-1.97 25.33 -4.94 25.66 -8 26 C-8 25.01 -8 24.02 -8 23 C-8.59683594 22.75121094 -9.19367188 22.50242188 -9.80859375 22.24609375 C-12.32215525 20.81681368 -13.41590812 19.42041957 -15.0625 17.0625 C-16.89190484 14.46639499 -18.75059114 12.23605925 -21 10 C-21 9.67 -21 9.34 -21 9 C-20.20335937 9.03480469 -19.40671875 9.06960937 -18.5859375 9.10546875 C-12.55335597 9.2595858 -8.25742035 9.32047601 -3 6 C-2.34 6 -1.68 6 -1 6 C-0.67 4.02 -0.34 2.04 0 0 Z M-12 14 C-12 14.66 -12 15.32 -12 16 C-11.34 16 -10.68 16 -10 16 C-9.67 16.99 -9.34 17.98 -9 19 C-8.34 19 -7.68 19 -7 19 C-6.67 20.65 -6.34 22.3 -6 24 C-1.9616983 24.40667179 -1.9616983 24.40667179 2 24 C4.27589884 21.42223531 4.27589884 21.42223531 6 18 C7.01100943 16.70464417 8.05392818 15.43365086 9.125 14.1875 C9.87136719 13.31158203 9.87136719 13.31158203 10.6328125 12.41796875 C12 11 12 11 14 10 C14 9.01 14 8.02 14 7 C-0.58012171 5.73579547 -0.58012171 5.73579547 -12 14 Z " fill="#881C22" transform="translate(176,137)"/>
<path d="M0 0 C4.62 0 9.24 0 14 0 C14 0.66 14 1.32 14 2 C13.01 2.33 12.02 2.66 11 3 C10.94213332 6.79160297 10.90644946 10.58309311 10.875 14.375 C10.85824219 15.45523438 10.84148437 16.53546875 10.82421875 17.6484375 C10.81455078 19.1953125 10.81455078 19.1953125 10.8046875 20.7734375 C10.78897705 22.20308838 10.78897705 22.20308838 10.77294922 23.66162109 C10.76868133 26.1923213 10.76868133 26.1923213 13 28 C8.71 28 4.42 28 0 28 C0.66 27.34 1.32 26.68 2 26 C2.37135915 23.47962036 2.37135915 23.47962036 2.4140625 20.5546875 C2.45273438 19.47832031 2.49140625 18.40195313 2.53125 17.29296875 C2.5621875 16.16503906 2.593125 15.03710938 2.625 13.875 C2.66367188 12.73933594 2.70234375 11.60367188 2.7421875 10.43359375 C2.83667601 7.62256044 2.92223541 4.81153767 3 2 C2.01 2 1.02 2 0 2 C0 1.34 0 0.68 0 0 Z " fill="#FCFCAF" transform="translate(79,137)"/>
<path d="M0 0 C3.96 0 7.92 0 12 0 C12 0.66 12 1.32 12 2 C11.34 2 10.68 2 10 2 C10 4.64 10 7.28 10 10 C2.56575346 12.28746048 -6.00573441 14.03629226 -13.1875 10.375 C-15.34119266 7.55291996 -15.76065097 5.51045242 -16 2 C-14.35 2 -12.7 2 -11 2 C-11 2.66 -11 3.32 -11 4 C-10.34 4 -9.68 4 -9 4 C-8.34 5.98 -7.68 7.96 -7 10 C-2.545 9.505 -2.545 9.505 2 9 C2.33 6.69 2.66 4.38 3 2 C2.01 2 1.02 2 0 2 C0 1.34 0 0.68 0 0 Z " fill="#E2D698" transform="translate(199,188)"/>
<path d="M0 0 C2.4375 0.375 2.4375 0.375 5 1 C5.33 1.66 5.66 2.32 6 3 C4.68 3.33 3.36 3.66 2 4 C2.165 4.7425 2.33 5.485 2.5 6.25 C3 9 3 9 3 13 C3.99 13.33 4.98 13.66 6 14 C6 15.65 6 17.3 6 19 C6.99 19 7.98 19 9 19 C9 19.66 9 20.32 9 21 C10.65 20.34 12.3 19.68 14 19 C14 19.66 14 20.32 14 21 C15.98 20.67 17.96 20.34 20 20 C20.33 19.01 20.66 18.02 21 17 C21.66 16.34 22.32 15.68 23 15 C22.67 14.34 22.34 13.68 22 13 C23.32 13.33 24.64 13.66 26 14 C26 16.75 26 16.75 25 20 C20.46393112 23.65098227 15.73784627 24.54130625 10 24 C8.32442621 23.71479595 6.65182755 23.40044304 5 23 C4.67 22.01 4.34 21.02 4 20 C1.99983534 18.79117904 1.99983534 18.79117904 0 18 C0.33 16.35 0.66 14.7 1 13 C0.34 13 -0.32 13 -1 13 C-1.02696365 11.20841511 -1.04637917 9.41671527 -1.0625 7.625 C-1.07410156 6.62726563 -1.08570313 5.62953125 -1.09765625 4.6015625 C-1 2 -1 2 0 0 Z " fill="#FBDD6D" transform="translate(150,123)"/>
<path d="M0 0 C2.64 0 5.28 0 8 0 C8 0.66 8 1.32 8 2 C10.475 2.99 10.475 2.99 13 4 C13.33 6.97 13.66 9.94 14 13 C13.01 13.495 13.01 13.495 12 14 C12 11.69 12 9.38 12 7 C11.01 7 10.02 7 9 7 C9 10.63 9 14.26 9 18 C6.94921875 18.42317708 4.8984375 18.84635417 2.84765625 19.26953125 C1.93306641 19.63111328 1.93306641 19.63111328 1 20 C0.67 20.99 0.34 21.98 0 23 C0 19.7 0 16.4 0 13 C2.475 13.495 2.475 13.495 5 14 C5.33 14.99 5.66 15.98 6 17 C6.66 17 7.32 17 8 17 C8 13.7 8 10.4 8 7 C7.01 7 6.02 7 5 7 C4.67 8.32 4.34 9.64 4 11 C2.68 11 1.36 11 0 11 C0 7.37 0 3.74 0 0 Z " fill="#221E11" transform="translate(142,139)"/>
<path d="M0 0 C4.95 0 9.9 0 15 0 C15.33 0.99 15.66 1.98 16 3 C16.66 3 17.32 3 18 3 C18.33 2.34 18.66 1.68 19 1 C19 1.66 19 2.32 19 3 C20.32 3 21.64 3 23 3 C23 6.63 23 10.26 23 14 C19.04 14 15.08 14 11 14 C11 10.37 11 6.74 11 3 C11.99 3 12.98 3 14 3 C14 2.34 14 1.68 14 1 C9.38 1 4.76 1 0 1 C0 0.67 0 0.34 0 0 Z " fill="#120C05" transform="translate(213,171)"/>
<path d="M0 0 C3.3 0 6.6 0 10 0 C13.28571429 7.42857143 13.28571429 7.42857143 14 11 C13.01 10.67 12.02 10.34 11 10 C10.67 9.34 10.34 8.68 10 8 C9.34 8 8.68 8 8 8 C6.8838344 11.71429898 6.6875805 15.39161508 6.4375 19.25 C6.31181641 21.14492187 6.31181641 21.14492187 6.18359375 23.078125 C6.12300781 24.04234375 6.06242187 25.0065625 6 26 C6.99 26 7.98 26 9 26 C9 26.66 9 27.32 9 28 C6.03 28 3.06 28 0 28 C0.33 27.34 0.66 26.68 1 26 C1.66 26 2.32 26 3 26 C3 18.08 3 10.16 3 2 C2.01 2 1.02 2 0 2 C0 1.34 0 0.68 0 0 Z " fill="#AEA773" transform="translate(95,137)"/>
<path d="M0 0 C2 0.25 2 0.25 4 1 C4.89340773 3.6802232 5.14352091 5.3640125 5.2109375 8.125 C5.23929688 8.91390625 5.26765625 9.7028125 5.296875 10.515625 C5.34895119 12.17164796 5.39322498 13.8279347 5.4296875 15.484375 C5.460625 16.27328125 5.4915625 17.0621875 5.5234375 17.875 C5.54325684 18.59429687 5.56307617 19.31359375 5.58349609 20.0546875 C5.91358776 22.45698295 5.91358776 22.45698295 9 25 C4.38 25 -0.24 25 -5 25 C-3.68 24.34 -2.36 23.68 -1 23 C-1.00523682 22.3387915 -1.01047363 21.67758301 -1.01586914 20.99633789 C-1.03657656 18.01840149 -1.04964012 15.04048018 -1.0625 12.0625 C-1.07087891 11.02158203 -1.07925781 9.98066406 -1.08789062 8.90820312 C-1.09111328 7.91884766 -1.09433594 6.92949219 -1.09765625 5.91015625 C-1.10289307 4.99371338 -1.10812988 4.07727051 -1.11352539 3.13305664 C-1 1 -1 1 0 0 Z " fill="#F9F9AF" transform="translate(121,140)"/>
<path d="M0 0 C4.62 0 9.24 0 14 0 C14 0.66 14 1.32 14 2 C13.01 2.33 12.02 2.66 11 3 C10.67 8.61 10.34 14.22 10 20 C8.35 19.67 6.7 19.34 5 19 C5 20.98 5 22.96 5 25 C4.67 25 4.34 25 4 25 C3.67 17.74 3.34 10.48 3 3 C2.01 2.67 1.02 2.34 0 2 C0 1.34 0 0.68 0 0 Z " fill="#A4923E" transform="translate(213,172)"/>
<path d="M0 0 C0.33 0 0.66 0 1 0 C1 5.61 1 11.22 1 17 C0.34 17.33 -0.32 17.66 -1 18 C2.3 18 5.6 18 9 18 C9 17.67 9 17.34 9 17 C11.31 17 13.62 17 16 17 C16 17.33 16 17.66 16 18 C22.93 18.33 29.86 18.66 37 19 C37 19.33 37 19.66 37 20 C22.66666667 20 8.33333333 20 -6 20 C-6.66 20.66 -7.32 21.32 -8 22 C-8.66 21.01 -9.32 20.02 -10 19 C-9.01 19 -8.02 19 -7 19 C-6.87496094 18.27941406 -6.74992187 17.55882812 -6.62109375 16.81640625 C-6.00591834 14.02683725 -5.14391595 11.57778724 -4.0625 8.9375 C-3.72347656 8.10089844 -3.38445312 7.26429688 -3.03515625 6.40234375 C-2.09616037 4.22316463 -1.08615152 2.10898479 0 0 Z " fill="#44422B" transform="translate(119,146)"/>
<path d="M0 0 C0.33 0 0.66 0 1 0 C1 11.88 1 23.76 1 36 C3.31 36 5.62 36 8 36 C8 24.12 8 12.24 8 0 C8.33 0 8.66 0 9 0 C9.33 8.58 9.66 17.16 10 26 C10.33 26 10.66 26 11 26 C11.03738281 25.38511719 11.07476562 24.77023438 11.11328125 24.13671875 C11.17902344 23.32847656 11.24476563 22.52023438 11.3125 21.6875 C11.37050781 20.88699219 11.42851562 20.08648437 11.48828125 19.26171875 C12.08206694 16.63727666 12.95780294 15.69179328 15 14 C14.83628906 14.70511719 14.67257813 15.41023437 14.50390625 16.13671875 C13.98300176 19.09658688 13.90133268 21.81061273 13.9375 24.8125 C13.94652344 25.78832031 13.95554688 26.76414063 13.96484375 27.76953125 C13.97644531 28.50558594 13.98804688 29.24164063 14 30 C13.01 30.33 12.02 30.66 11 31 C11.66 31.33 12.32 31.66 13 32 C12.67 32.99 12.34 33.98 12 35 C11.34 35 10.68 35 10 35 C9.67 35.66 9.34 36.32 9 37 C6.03 37 3.06 37 0 37 C0 24.79 0 12.58 0 0 Z " fill="#3C3219" transform="translate(169,164)"/>
<path d="M0 0 C0.33 0.66 0.66 1.32 1 2 C-6.92 2.495 -6.92 2.495 -15 3 C-14.67 3.33 -14.34 3.66 -14 4 C-13.91286169 5.70772358 -13.89299993 7.41898649 -13.90234375 9.12890625 C-13.90556641 10.16337891 -13.90878906 11.19785156 -13.91210938 12.26367188 C-13.92048828 13.35228516 -13.92886719 14.44089844 -13.9375 15.5625 C-13.94201172 16.65498047 -13.94652344 17.74746094 -13.95117188 18.87304688 C-13.96300174 21.58208495 -13.97948457 24.29101599 -14 27 C-14.33 27 -14.66 27 -15 27 C-15.33 20.73 -15.66 14.46 -16 8 C-17.32 7.67 -18.64 7.34 -20 7 C-20.99 6.67 -21.98 6.34 -23 6 C-23 12.6 -23 19.2 -23 26 C-23.33 26 -23.66 26 -24 26 C-24.02887512 22.35418313 -24.04675585 18.70839537 -24.0625 15.0625 C-24.07087891 14.02158203 -24.07925781 12.98066406 -24.08789062 11.90820312 C-24.09111328 10.91884766 -24.09433594 9.92949219 -24.09765625 8.91015625 C-24.10289307 7.99371338 -24.10812988 7.07727051 -24.11352539 6.13305664 C-24 4 -24 4 -23 3 C-25.31 2.67 -27.62 2.34 -30 2 C-30 1.67 -30 1.34 -30 1 C-15.15 0.505 -15.15 0.505 0 0 Z " fill="#5C5439" transform="translate(150,136)"/>
<path d="M0 0 C1.98 0 3.96 0 6 0 C6.66 1.65 7.32 3.3 8 5 C11.3 5 14.6 5 18 5 C18.33 3.35 18.66 1.7 19 0 C19.66 0 20.32 0 21 0 C21 2.64 21 5.28 21 8 C12.75 8 4.5 8 -4 8 C-4 7.34 -4 6.68 -4 6 C-3.01 5.67 -2.02 5.34 -1 5 C-0.67 3.35 -0.34 1.7 0 0 Z " fill="#CBCAA5" transform="translate(142,192)"/>
<path d="M0 0 C9.24 0 18.48 0 28 0 C28 2.97 28 5.94 28 9 C27.01 9 26.02 9 25 9 C24.67 7.35 24.34 5.7 24 4 C19.6835078 3.23826608 16.25566547 2.83936396 12 4 C12 3.34 12 2.68 12 2 C7.93434043 2.18772236 7.93434043 2.18772236 4 3 C2.00916823 5.4251788 2.00916823 5.4251788 1 8 C0.67 8 0.34 8 0 8 C0 5.36 0 2.72 0 0 Z " fill="#B8A56E" transform="translate(248,172)"/>
<path d="M0 0 C1.59521484 0.16242188 1.59521484 0.16242188 3.22265625 0.328125 C5.9375 0.75 5.9375 0.75 7.9375 1.75 C6.6875773 5.4997681 5.17696038 6.56524765 1.9375 8.75 C0.6175 8.75 -0.7025 8.75 -2.0625 8.75 C-2.0625 8.09 -2.0625 7.43 -2.0625 6.75 C-3.7125 7.41 -5.3625 8.07 -7.0625 8.75 C-7.7225 6.77 -8.3825 4.79 -9.0625 2.75 C-6.40377369 -0.84437564 -4.24924688 -0.47500694 0 0 Z " fill="#FAED45" transform="translate(166.0625,135.25)"/>
<path d="M0 0 C0.33 0 0.66 0 1 0 C1 7.26 1 14.52 1 22 C-0.32 22.33 -1.64 22.66 -3 23 C-3 23.66 -3 24.32 -3 25 C1.95 24.67 6.9 24.34 12 24 C12 24.66 12 25.32 12 26 C-8.375 26 -8.375 26 -15 25 C-11.77208445 22.8480563 -10.71599191 22.79913557 -7 23 C-7 20.36 -7 17.72 -7 15 C-6.34 15 -5.68 15 -5 15 C-4.67 14.34 -4.34 13.68 -4 13 C-4 13.99 -4 14.98 -4 16 C-4.66 16 -5.32 16 -6 16 C-5.67 17.32 -5.34 18.64 -5 20 C-4.01 19.67 -3.02 19.34 -2 19 C-0.3501993 15.70039859 -0.61741639 12.00872116 -0.4375 8.375 C-0.39431641 7.57320312 -0.35113281 6.77140625 -0.30664062 5.9453125 C-0.20048543 3.9637489 -0.09973145 1.98189729 0 0 Z " fill="#262112" transform="translate(216,175)"/>
<path d="M0 0 C1.98 0 3.96 0 6 0 C6 5.28 6 10.56 6 16 C4.35 15.67 2.7 15.34 1 15 C-0.44207941 12.11584117 -0.09394887 9.58278472 -0.0625 6.375 C-0.05347656 5.18648437 -0.04445312 3.99796875 -0.03515625 2.7734375 C-0.02355469 1.85820312 -0.01195312 0.94296875 0 0 Z " fill="#F7E28E" transform="translate(170,163)"/>
<path d="M0 0 C5.61 0 11.22 0 17 0 C17 0.33 17 0.66 17 1 C14.36 1 11.72 1 9 1 C9 4.63 9 8.26 9 12 C8.67 10.68 8.34 9.36 8 8 C7.34 8 6.68 8 6 8 C6 8.99 6 9.98 6 11 C5.34 11 4.68 11 4 11 C4 15.29 4 19.58 4 24 C3.67 24 3.34 24 3 24 C2.98018066 23.34402832 2.96036133 22.68805664 2.93994141 22.01220703 C2.84487493 19.04938931 2.73512248 16.08729468 2.625 13.125 C2.5940625 12.09246094 2.563125 11.05992187 2.53125 9.99609375 C2.49257812 9.00996094 2.45390625 8.02382812 2.4140625 7.0078125 C2.3826416 6.09660645 2.3512207 5.18540039 2.31884766 4.24658203 C2.20117489 1.80068814 2.20117489 1.80068814 0 0 Z " fill="#EAE09B" transform="translate(133,138)"/>
<path d="M0 0 C1.65 0 3.3 0 5 0 C5.33 2.97 5.66 5.94 6 9 C7.32 9 8.64 9 10 9 C10 9.66 10 10.32 10 11 C5.05 11 0.1 11 -5 11 C-5 10.34 -5 9.68 -5 9 C-3.68 8.67 -2.36 8.34 -1 8 C-0.67 5.36 -0.34 2.72 0 0 Z " fill="#DAD5A7" transform="translate(259,189)"/>
<path d="M0 0 C2.64 0 5.28 0 8 0 C7.34 1.98 6.68 3.96 6 6 C5.34 5.01 4.68 4.02 4 3 C3.01 3 2.02 3 1 3 C1 9.6 1 16.2 1 23 C0.67 23 0.34 23 0 23 C-0.33 19.04 -0.66 15.08 -1 11 C-2.32 13.97 -3.64 16.94 -5 20 C-5.99 19.34 -6.98 18.68 -8 18 C-2.81321185 5.33029613 -2.81321185 5.33029613 0 0 Z " fill="#DBD392" transform="translate(120,138)"/>
<path d="M0 0 C4.62 0 9.24 0 14 0 C14 0.66 14 1.32 14 2 C13.01 2.33 12.02 2.66 11 3 C10.67 10.26 10.34 17.52 10 25 C9.67 25 9.34 25 9 25 C8.67 17.74 8.34 10.48 8 3 C6.68 2.67 5.36 2.34 4 2 C4 9.59 4 17.18 4 25 C3.67 25 3.34 25 3 25 C3 17.41 3 9.82 3 2 C2.01 2 1.02 2 0 2 C0 1.34 0 0.68 0 0 Z " fill="#A9A274" transform="translate(79,137)"/>
<path d="M0 0 C1.65 0 3.3 0 5 0 C5 0.66 5 1.32 5 2 C5.66 2 6.32 2 7 2 C7.66 3.98 8.32 5.96 9 8 C11.64 8.33 14.28 8.66 17 9 C17 9.33 17 9.66 17 10 C7.18947495 10.61852697 7.18947495 10.61852697 2.875 8.375 C0.64747824 5.55347244 0.24215952 3.55167293 0 0 Z " fill="#E8E5C0" transform="translate(183,190)"/>
<path d="M0 0 C1.65 0.33 3.3 0.66 5 1 C5.33 2.65 5.66 4.3 6 6 C6.99 6.33 7.98 6.66 9 7 C9 7.66 9 8.32 9 9 C4.38 9 -0.24 9 -5 9 C-5 8.34 -5 7.68 -5 7 C-3.35 6.67 -1.7 6.34 0 6 C0 4.02 0 2.04 0 0 Z " fill="#E0D89E" transform="translate(218,191)"/>
<path d="M0 0 C0.66 0 1.32 0 2 0 C2 2.64 2 5.28 2 8 C-6.25 8 -14.5 8 -23 8 C-18.64467851 5.82233925 -17.53374042 5.96960445 -13 7 C-13 6.34 -13 5.68 -13 5 C-11.96939453 5.08701172 -11.96939453 5.08701172 -10.91796875 5.17578125 C-8.20239132 5.31175437 -5.69591297 5.37019807 -3 5 C-0.91783124 2.6450037 -0.91783124 2.6450037 0 0 Z " fill="#D5D3A6" transform="translate(155,157)"/>
<path d="M0 0 C1.32 0 2.64 0 4 0 C4.33 1.32 4.66 2.64 5 4 C5 3.34 5 2.68 5 2 C5.66 2 6.32 2 7 2 C7.88920493 4.91012522 8.31467607 6.37392203 6.9206543 9.14746094 C5 11 5 11 2.08911133 11.45410156 C0.9317749 11.4331543 -0.22556152 11.41220703 -1.41796875 11.390625 C-2.67158203 11.37773437 -3.92519531 11.36484375 -5.21679688 11.3515625 C-6.52712891 11.31804687 -7.83746094 11.28453125 -9.1875 11.25 C-10.5227601 11.22993307 -11.85804883 11.21168262 -13.19335938 11.1953125 C-16.46296146 11.14809803 -19.73112192 11.08225184 -23 11 C-22.67 10.34 -22.34 9.68 -22 9 C-13.75 9.33 -5.5 9.66 3 10 C3 7.36 3 4.72 3 2 C2.01 2 1.02 2 0 2 C0 1.34 0 0.68 0 0 Z " fill="#28261D" transform="translate(160,190)"/>
<path d="M0 0 C3.3 0 6.6 0 10 0 C10 7.92 10 15.84 10 24 C9.67 24 9.34 24 9 24 C8.67 16.41 8.34 8.82 8 1 C7.01 1 6.02 1 5 1 C4.67 8.59 4.34 16.18 4 24 C3.67 24 3.34 24 3 24 C2.98018066 23.34402832 2.96036133 22.68805664 2.93994141 22.01220703 C2.84487493 19.04938931 2.73512248 16.08729468 2.625 13.125 C2.5940625 12.09246094 2.563125 11.05992187 2.53125 9.99609375 C2.49257813 9.00996094 2.45390625 8.02382812 2.4140625 7.0078125 C2.3826416 6.09660645 2.3512207 5.18540039 2.31884766 4.24658203 C2.20117489 1.80068814 2.20117489 1.80068814 0 0 Z " fill="#A6A073" transform="translate(53,138)"/>
<path d="M0 0 C2.4375 0.375 2.4375 0.375 5 1 C5.33 1.66 5.66 2.32 6 3 C4.68 3.33 3.36 3.66 2 4 C2.144375 4.66 2.28875 5.32 2.4375 6 C3.12299916 9.65599551 3.56175515 13.30622195 4 17 C2.68 17 1.36 17 0 17 C0.33 15.68 0.66 14.36 1 13 C0.34 13 -0.32 13 -1 13 C-1.02696365 11.20841511 -1.04637917 9.41671527 -1.0625 7.625 C-1.07410156 6.62726563 -1.08570313 5.62953125 -1.09765625 4.6015625 C-1 2 -1 2 0 0 Z " fill="#F2EC75" transform="translate(150,123)"/>
<path d="M0 0 C4.62 0 9.24 0 14 0 C14 0.66 14 1.32 14 2 C13.01 2.33 12.02 2.66 11 3 C10.67 4.98 10.34 6.96 10 9 C9.67 8.34 9.34 7.68 9 7 C7.68 7.33 6.36 7.66 5 8 C4.67 6.02 4.34 4.04 4 2 C2.68 2 1.36 2 0 2 C0 1.34 0 0.68 0 0 Z " fill="#C0AB70" transform="translate(232,172)"/>
<path d="M0 0 C1.65 0 3.3 0 5 0 C5.33 1.65 5.66 3.3 6 5 C7.32 5.33 8.64 5.66 10 6 C10 6.66 10 7.32 10 8 C5.38 8 0.76 8 -4 8 C-3.01 7.01 -2.02 6.02 -1 5 C-0.27802838 2.39388923 -0.27802838 2.39388923 0 0 Z " fill="#E3DDA8" transform="translate(237,192)"/>
<path d="M0 0 C1.36421031 2.72842061 0.87807211 4.60953318 0.5625 7.625 C0.46066406 8.62789062 0.35882813 9.63078125 0.25390625 10.6640625 C0.17011719 11.43492187 0.08632812 12.20578125 0 13 C-0.33 12.34 -0.66 11.68 -1 11 C-2.65 11 -4.3 11 -6 11 C-6.33 11.66 -6.66 12.32 -7 13 C-7 10.03 -7 7.06 -7 4 C-5.824375 3.8453125 -5.824375 3.8453125 -4.625 3.6875 C-1.66954819 3.22404978 -1.66954819 3.22404978 0 0 Z " fill="#A89249" transform="translate(189,179)"/>
<path d="M0 0 C0.66 0 1.32 0 2 0 C2 2.31 2 4.62 2 7 C-6.25 7 -14.5 7 -23 7 C-18.46780033 4.73390016 -16.82227075 5.07264024 -12 6 C-11.67 5.34 -11.34 4.68 -11 4 C-9.741875 4.0825 -8.48375 4.165 -7.1875 4.25 C-5.00676926 4.31722799 -5.00676926 4.31722799 -3 4 C-1.08743288 2.11922127 -1.08743288 2.11922127 0 0 Z " fill="#C7C59D" transform="translate(75,158)"/>
<path d="M0 0 C4.62 0 9.24 0 14 0 C14 0.66 14 1.32 14 2 C13.01 2.33 12.02 2.66 11 3 C11 2.34 11 1.68 11 1 C8.36 1.33 5.72 1.66 3 2 C3.33 2.33 3.66 2.66 4 3 C4.08713831 4.70772358 4.10700007 6.41898649 4.09765625 8.12890625 C4.09282227 9.68061523 4.09282227 9.68061523 4.08789062 11.26367188 C4.07951172 12.35228516 4.07113281 13.44089844 4.0625 14.5625 C4.05798828 15.65498047 4.05347656 16.74746094 4.04882812 17.87304688 C4.03699826 20.58208495 4.02051543 23.29101599 4 26 C2.68 26.33 1.36 26.66 0 27 C0.33 25.68 0.66 24.36 1 23 C1.66 23.33 2.32 23.66 3 24 C2.67 17.07 2.34 10.14 2 3 C1.34 3 0.68 3 0 3 C0 2.01 0 1.02 0 0 Z " fill="#524B31" transform="translate(52,137)"/>
<path d="M0 0 C4.62 0 9.24 0 14 0 C14 0.66 14 1.32 14 2 C13.01 2.33 12.02 2.66 11 3 C9.79117904 5.00016466 9.79117904 5.00016466 9 7 C7.68 7 6.36 7 5 7 C4.731875 6.360625 4.46375 5.72125 4.1875 5.0625 C3.11332248 2.66868314 3.11332248 2.66868314 0 2 C0 1.34 0 0.68 0 0 Z " fill="#C6AF6E" transform="translate(213,172)"/>
<path d="M0 0 C2.475 0.495 2.475 0.495 5 1 C5.31620422 7.79839071 4.12676382 14.30983984 3 21 C2.67 21 2.34 21 2 21 C1.34 14.07 0.68 7.14 0 0 Z " fill="#FCF7A1" transform="translate(83,139)"/>
<path d="M0 0 C0.33 0.66 0.66 1.32 1 2 C2.32 2 3.64 2 5 2 C5 2.99 5 3.98 5 5 C3.68 5 2.36 5 1 5 C1.33 10.94 1.66 16.88 2 23 C2.99 23.33 3.98 23.66 5 24 C5 24.66 5 25.32 5 26 C2.03 26 -0.94 26 -4 26 C-3.67 25.34 -3.34 24.68 -3 24 C-2.01 24 -1.02 24 0 24 C0 16.08 0 8.16 0 0 Z " fill="#DFDFB5" transform="translate(99,139)"/>
<path d="M0 0 C2.0625 0.4375 2.0625 0.4375 4 1 C4.18451025 12.52164009 4.18451025 12.52164009 3 18 C0.97466807 14.53898975 0.39999925 11.25713782 -0.1875 7.3125 C-0.36667969 6.15363281 -0.54585938 4.99476563 -0.73046875 3.80078125 C-0.81941406 2.87652344 -0.90835938 1.95226562 -1 1 C-0.67 0.67 -0.34 0.34 0 0 Z " fill="#FBF398" transform="translate(121,140)"/>
<path d="M0 0 C0.99 0 1.98 0 3 0 C3.054348 2.0622048 3.09294961 4.12482816 3.125 6.1875 C3.14820313 7.33605469 3.17140625 8.48460937 3.1953125 9.66796875 C3.00484152 12.91740372 2.39360127 15.08660521 1 18 C0.67 18 0.34 18 0 18 C-0.19430855 15.3753399 -0.38073238 12.75053235 -0.5625 10.125 C-0.61857422 9.37863281 -0.67464844 8.63226563 -0.73242188 7.86328125 C-1.11328125 2.2265625 -1.11328125 2.2265625 0 0 Z " fill="#FBF29D" transform="translate(58,139)"/>
<path d="M0 0 C1.98 0 3.96 0 6 0 C6 2.64 6 5.28 6 8 C4.02 8 2.04 8 0 8 C0 5.36 0 2.72 0 0 Z " fill="#F5ECA5" transform="translate(170,192)"/>
<path d="M0 0 C3.0831351 1.19899698 6.06279492 2.47700477 9 4 C9 4.66 9 5.32 9 6 C9.639375 6.12375 10.27875 6.2475 10.9375 6.375 C11.618125 6.58125 12.29875 6.7875 13 7 C13.33 7.66 13.66 8.32 14 9 C10.5749065 8.98692712 7.33358891 8.82033457 4 8 C0 3.52380952 0 3.52380952 0 0 Z " fill="#E9E274" transform="translate(158,127)"/>
<path d="M0 0 C4.62 0 9.24 0 14 0 C14 0.66 14 1.32 14 2 C13.360625 2.28875 12.72125 2.5775 12.0625 2.875 C9.84793921 3.82823451 9.84793921 3.82823451 9 6 C7.68 6 6.36 6 5 6 C5 4.68 5 3.36 5 2 C3.35 2 1.7 2 0 2 C0 1.34 0 0.68 0 0 Z " fill="#C3AE71" transform="translate(138,172)"/>
<path d="M0 0 C1.98 0 3.96 0 6 0 C6.66 2.31 7.32 4.62 8 7 C5.36 7 2.72 7 0 7 C0 4.69 0 2.38 0 0 Z " fill="#F1EAA5" transform="translate(142,192)"/>
<path d="M0 0 C3.96 0 7.92 0 12 0 C12 0.66 12 1.32 12 2 C11.34 2 10.68 2 10 2 C10 4.64 10 7.28 10 10 C9.01 9.67 8.02 9.34 7 9 C7.66 9 8.32 9 9 9 C9 7.02 9 5.04 9 3 C7.05925139 3.27617533 7.05925139 3.27617533 5 4 C4.01 5.485 4.01 5.485 3 7 C3 5.35 3 3.7 3 2 C2.01 2 1.02 2 0 2 C0 1.34 0 0.68 0 0 Z " fill="#A79762" transform="translate(199,188)"/>
<path d="M0 0 C0.33 0.66 0.66 1.32 1 2 C6.61 2 12.22 2 18 2 C17.34 3.65 16.68 5.3 16 7 C15.67 6.01 15.34 5.02 15 4 C9.39 4 3.78 4 -2 4 C-1.34 3.67 -0.68 3.34 0 3 C0 2.01 0 1.02 0 0 Z " fill="#B74B48" transform="translate(175,140)"/>
<path d="M0 0 C3.37688293 3.37688293 4.09233249 5.37914723 5 10 C4.01 11.485 4.01 11.485 3 13 C2.34 13 1.68 13 1 13 C0.67 13.99 0.34 14.98 0 16 C0 10.72 0 5.44 0 0 Z " fill="#1A170E" transform="translate(101,147)"/>
<path d="M0 0 C0.33 0 0.66 0 1 0 C1 6.93 1 13.86 1 21 C2.32 21 3.64 21 5 21 C5.33 20.34 5.66 19.68 6 19 C6.99 19.99 7.98 20.98 9 22 C4.71 22 0.42 22 -4 22 C-3.01 21.01 -2.02 20.02 -1 19 C-0.49945249 16.88384156 -0.49945249 16.88384156 -0.48828125 14.55078125 C-0.45283203 13.70322266 -0.41738281 12.85566406 -0.38085938 11.98242188 C-0.35830078 11.10134766 -0.33574219 10.22027344 -0.3125 9.3125 C-0.27833984 8.41982422 -0.24417969 7.52714844 -0.20898438 6.60742188 C-0.12654352 4.40507329 -0.05738449 2.20312062 0 0 Z " fill="#E8E7AF" transform="translate(83,143)"/>
<path d="M0 0 C0.33 0.99 0.66 1.98 1 3 C-0.109375 4.61328125 -0.109375 4.61328125 -1.75 6.3125 C-4.50753508 9.32654997 -6.34577673 12.23204699 -8 16 C-8.66 14.68 -9.32 13.36 -10 12 C-8.8553125 10.6696875 -8.8553125 10.6696875 -7.6875 9.3125 C-6.00466706 7.30641102 -4.67018018 5.45030029 -3.3125 3.1875 C-2 1 -2 1 0 0 Z " fill="#1C0508" transform="translate(188,151)"/>
<path d="M0 0 C0.99 0 1.98 0 3 0 C3 3.3 3 6.6 3 10 C2.34 10 1.68 10 1 10 C0.34 9.01 -0.32 8.02 -1 7 C-3.05925139 6.27617533 -3.05925139 6.27617533 -5 6 C-5 5.34 -5 4.68 -5 4 C-4.0409375 3.8453125 -4.0409375 3.8453125 -3.0625 3.6875 C-2.381875 3.460625 -1.70125 3.23375 -1 3 C-0.67 2.01 -0.34 1.02 0 0 Z " fill="#C7C39C" transform="translate(147,146)"/>
<path d="M0 0 C2.475 0.495 2.475 0.495 5 1 C5.33 1.99 5.66 2.98 6 4 C6.66 4.33 7.32 4.66 8 5 C6.865625 5.268125 5.73125 5.53625 4.5625 5.8125 C2.7990625 6.4003125 2.7990625 6.4003125 1 7 C0.67 7.99 0.34 8.98 0 10 C0 6.7 0 3.4 0 0 Z " fill="#302D1E" transform="translate(142,152)"/>
<path d="M0 0 C2.97 0.495 2.97 0.495 6 1 C5.47731534 3.76276177 4.89130413 6.3260876 4 9 C3.01 9 2.02 9 1 9 C0.67 6.03 0.34 3.06 0 0 Z " fill="#EEEEB1" transform="translate(108,156)"/>
<path d="M0 0 C1.99954746 -0.04254356 4.00041636 -0.04080783 6 0 C7 1 7 1 7.09765625 3.50390625 C7.08605469 4.51324219 7.07445312 5.52257812 7.0625 6.5625 C7.05347656 7.57441406 7.04445312 8.58632812 7.03515625 9.62890625 C7.02355469 10.41136719 7.01195312 11.19382813 7 12 C6.67 12 6.34 12 6 12 C6 9.36 6 6.72 6 4 C4.02 4 2.04 4 0 4 C0 2.68 0 1.36 0 0 Z " fill="#CBB569" transform="translate(170,188)"/>
<path d="M0 0 C0.99 0.66 1.98 1.32 3 2 C2.67 2.99 2.34 3.98 2 5 C1.38125 4.2575 1.38125 4.2575 0.75 3.5 C-1.12202338 1.56613908 -1.12202338 1.56613908 -5 2 C-6.6446674 4.46326712 -6.6446674 4.46326712 -8 7 C-8.66 7 -9.32 7 -10 7 C-9.6875 4.625 -9.6875 4.625 -9 2 C-5.53001271 -0.31332486 -4.07490752 -0.33957563 0 0 Z " fill="#291D0E" transform="translate(200,174)"/>
<path d="M0 0 C1.65 0 3.3 0 5 0 C5.33 2.64 5.66 5.28 6 8 C5.67 7.01 5.34 6.02 5 5 C4.01 5.33 3.02 5.66 2 6 C1.34 5.67 0.68 5.34 0 5 C0 3.35 0 1.7 0 0 Z " fill="#DCC976" transform="translate(259,189)"/>
<path d="M0 0 C0 2.31 0 4.62 0 7 C-1.65 6.67 -3.3 6.34 -5 6 C-5 7.98 -5 9.96 -5 12 C-5.33 12 -5.66 12 -6 12 C-6.125 5.375 -6.125 5.375 -5 2 C-1.63157895 0 -1.63157895 0 0 0 Z " fill="#C6AD5B" transform="translate(223,185)"/>
<path d="M0 0 C0.33 0 0.66 0 1 0 C1.22211116 1.93596892 1.42722992 3.87389328 1.625 5.8125 C1.74101562 6.89144531 1.85703125 7.97039062 1.9765625 9.08203125 C2 12 2 12 0 15 C0 13.35 0 11.7 0 10 C-3.96 10 -7.92 10 -12 10 C-12 9.67 -12 9.34 -12 9 C-8.04 9 -4.08 9 0 9 C0 6.03 0 3.06 0 0 Z " fill="#968748" transform="translate(236,176)"/>
<path d="M0 0 C0.33 0 0.66 0 1 0 C1 5.61 1 11.22 1 17 C0.67 17 0.34 17 0 17 C-0.33 14.03 -0.66 11.06 -1 8 C-1.99 8.99 -2.98 9.98 -4 11 C-2.95902388 7.13351728 -1.96301592 3.50538557 0 0 Z " fill="#35351C" transform="translate(119,146)"/>
<path d="M0 0 C1.65 0 3.3 0 5 0 C5 0.66 5 1.32 5 2 C5.66 2 6.32 2 7 2 C7.66 3.65 8.32 5.3 9 7 C8.01 7 7.02 7 6 7 C6 5.68 6 4.36 6 3 C2.9254644 3.7763932 2.9254644 3.7763932 1 6 C0.67 4.02 0.34 2.04 0 0 Z " fill="#D5C479" transform="translate(183,190)"/>
<path d="M0 0 C0.66 0.66 1.32 1.32 2 2 C1.57044137 4.87985784 0.47704949 7.53813177 -0.5625 10.25 C-0.83191406 10.95640625 -1.10132812 11.6628125 -1.37890625 12.390625 C-1.58386719 12.92171875 -1.78882812 13.4528125 -2 14 C-2.99 13.34 -3.98 12.68 -5 12 C-3.35 8.04 -1.7 4.08 0 0 Z " fill="#AFAF8C" transform="translate(117,144)"/>
<path d="M0 0 C0.66 0.33 1.32 0.66 2 1 C-0.92477319 3.92477319 -3.02014991 5.30875009 -7.125 5.4375 C-11.13395972 4.98487552 -11.57614944 4.8378623 -14 2 C-12.98679688 2.03480469 -12.98679688 2.03480469 -11.953125 2.0703125 C-11.06109375 2.08835938 -10.1690625 2.10640625 -9.25 2.125 C-8.36828125 2.14820313 -7.4865625 2.17140625 -6.578125 2.1953125 C-3.87117062 1.9902402 -2.37397689 1.228275 0 0 Z " fill="#BD3D15" transform="translate(171,144)"/>
<path d="M0 0 C3.63 0 7.26 0 11 0 C11 0.33 11 0.66 11 1 C7.7 1 4.4 1 1 1 C1 1.66 1 2.32 1 3 C1.99 3 2.98 3 4 3 C4 4.65 4 6.3 4 8 C3.34 8 2.68 8 2 8 C0.3125 5.6875 0.3125 5.6875 -1 3 C-0.67 2.01 -0.34 1.02 0 0 Z " fill="#21190C" transform="translate(94,136)"/>
<path d="M0 0 C1.66611905 -0.042721 3.33382885 -0.04063832 5 0 C6 1 6 1 6.0625 3.5625 C6.041875 4.366875 6.02125 5.17125 6 6 C4.35 5.67 2.7 5.34 1 5 C0.67 3.35 0.34 1.7 0 0 Z " fill="#E4C86D" transform="translate(170,173)"/>
<path d="M0 0 C0.66 0.33 1.32 0.66 2 1 C1.21625 1.9075 0.4325 2.815 -0.375 3.75 C-1.95088958 5.61723051 -3.03500944 7.07619702 -4.0625 9.3125 C-5 11 -5 11 -7.125 11.75 C-8.053125 11.87375 -8.053125 11.87375 -9 12 C-7.55575365 8.76138697 -5.74227753 6.38030837 -3.375 3.75 C-2.74335938 3.04359375 -2.11171875 2.3371875 -1.4609375 1.609375 C-0.97882813 1.07828125 -0.49671875 0.5471875 0 0 Z " fill="#AF1D2B" transform="translate(188,147)"/>
<path d="M0 0 C2.4375 0.375 2.4375 0.375 5 1 C5.33 1.66 5.66 2.32 6 3 C4.02 3.33 2.04 3.66 0 4 C0 6.97 0 9.94 0 13 C-0.33 13 -0.66 13 -1 13 C-1.02696365 11.20841511 -1.04637917 9.41671527 -1.0625 7.625 C-1.07410156 6.62726563 -1.08570313 5.62953125 -1.09765625 4.6015625 C-1 2 -1 2 0 0 Z " fill="#BEB75F" transform="translate(150,123)"/>
<path d="M0 0 C1.5625 1.25 1.5625 1.25 3 3 C2.6875 5.1875 2.6875 5.1875 2 7 C1.34 6.67 0.68 6.34 0 6 C-0.33 7.65 -0.66 9.3 -1 11 C-3 8 -3 8 -2.75 6.0625 C-1.97936717 3.94325972 -1.0643413 1.98677042 0 0 Z " fill="#D6D499" transform="translate(109,151)"/>
<path d="M0 0 C1.98 0.99 1.98 0.99 4 2 C4 3.98 4 5.96 4 8 C2.68 8.33 1.36 8.66 0 9 C0 6.03 0 3.06 0 0 Z " fill="#B5993F" transform="translate(142,179)"/>
<path d="M0 0 C0.66 0 1.32 0 2 0 C2.93619813 3.15506142 3.1057123 5.96586502 3.0625 9.25 C3.05347656 10.14203125 3.04445312 11.0340625 3.03515625 11.953125 C3.02355469 12.62859375 3.01195312 13.3040625 3 14 C2.67 14 2.34 14 2 14 C2 11.36 2 8.72 2 6 C0.68 5.67 -0.64 5.34 -2 5 C-2 4.34 -2 3.68 -2 3 C-1.34 3 -0.68 3 0 3 C0 2.01 0 1.02 0 0 Z " fill="#F5F3A8" transform="translate(139,146)"/>
<path d="M0 0 C0.99 0 1.98 0 3 0 C3 2.64 3 5.28 3 8 C4.32 8.33 5.64 8.66 7 9 C5.35 9 3.7 9 2 9 C1.67 8.01 1.34 7.02 1 6 C-0.99665314 4.31461399 -0.99665314 4.31461399 -3 3 C-1.68 3 -0.36 3 1 3 C0.67 2.01 0.34 1.02 0 0 Z " fill="#D8CB64" transform="translate(153,137)"/>
<path d="M0 0 C2.475 0.495 2.475 0.495 5 1 C4.25 5.75 4.25 5.75 2 8 C2 6.68 2 5.36 2 4 C1.34 4 0.68 4 0 4 C0 2.68 0 1.36 0 0 Z " fill="#F8EA91" transform="translate(83,139)"/>
<path d="M0 0 C1.32 0 2.64 0 4 0 C4 1.98 4 3.96 4 6 C2.68 6 1.36 6 0 6 C0 4.02 0 2.04 0 0 Z " fill="#BDA03A" transform="translate(183,182)"/>
<path d="M0 0 C1.24546405 2.49092811 0.7767578 3.41080733 0 6 C0.66 6 1.32 6 2 6 C2 8.31 2 10.62 2 13 C1.67 13 1.34 13 1 13 C1 11.02 1 9.04 1 7 C-0.32 7 -1.64 7 -3 7 C-1.125 1.125 -1.125 1.125 0 0 Z " fill="#BCA359" transform="translate(186,175)"/>
<path d="M0 0 C0.66 0 1.32 0 2 0 C2 2.64 2 5.28 2 8 C1.34 8 0.68 8 0 8 C-0.33 7.34 -0.66 6.68 -1 6 C-1.66 5.67 -2.32 5.34 -3 5 C-1.625 2.5 -1.625 2.5 0 0 Z " fill="#A2A282" transform="translate(155,157)"/>
<path d="M0 0 C0.99 0 1.98 0 3 0 C3 0.66 3 1.32 3 2 C4.65 1.34 6.3 0.68 8 0 C8.33 1.32 8.66 2.64 9 4 C6.03 3.67 3.06 3.34 0 3 C0 2.01 0 1.02 0 0 Z " fill="#FBED6D" transform="translate(156,142)"/>
<path d="M0 0 C1.65 0 3.3 0 5 0 C4.814375 0.5775 4.62875 1.155 4.4375 1.75 C3.95976454 4.20692525 4.24270636 5.64397534 5 8 C4.34 8 3.68 8 3 8 C0.95830515 5.09451118 0 3.59857954 0 0 Z " fill="#1A160A" transform="translate(105,138)"/>
<path d="M0 0 C1.65 0 3.3 0 5 0 C5 0.99 5 1.98 5 3 C4.38125 3.0825 3.7625 3.165 3.125 3.25 C0.81562433 3.81258459 0.81562433 3.81258459 -0.25 6.0625 C-0.4975 6.701875 -0.745 7.34125 -1 8 C-1.125 2.25 -1.125 2.25 0 0 Z " fill="#CEB969" transform="translate(237,189)"/>
<path d="M0 0 C3.25 0.8125 3.25 0.8125 6 2 C6.33 1.34 6.66 0.68 7 0 C7.99 0.99 8.98 1.98 10 3 C5.38 3 0.76 3 -4 3 C-2.68 2.01 -1.36 1.02 0 0 Z " fill="#D7D8AE" transform="translate(120,162)"/>
<path d="M0 0 C0.66 0.33 1.32 0.66 2 1 C1.1875 3.4375 1.1875 3.4375 0 6 C-0.99 6.33 -1.98 6.66 -3 7 C-2.625 4.0625 -2.625 4.0625 -2 1 C-1.34 0.67 -0.68 0.34 0 0 Z " fill="#DBBE6E" transform="translate(189,174)"/>
<path d="M0 0 C1.32 0 2.64 0 4 0 C4 1.98 4 3.96 4 6 C3.01 6 2.02 6 1 6 C0.67 4.02 0.34 2.04 0 0 Z " fill="#BAA03B" transform="translate(237,182)"/>
<path d="M0 0 C0.33 0.66 0.66 1.32 1 2 C3.52733235 2.65555119 3.52733235 2.65555119 6 3 C6 3.99 6 4.98 6 6 C4.35 6 2.7 6 1 6 C0.67 4.02 0.34 2.04 0 0 Z " fill="#CAB054" transform="translate(170,176)"/>
<path d="M0 0 C0.33 0 0.66 0 1 0 C1 2.31 1 4.62 1 7 C-0.32 7 -1.64 7 -3 7 C-2.38722388 4.03824877 -1.74627478 2.61941217 0 0 Z " fill="#040400" transform="translate(118,153)"/>
<path d="M0 0 C1.65 0.33 3.3 0.66 5 1 C4.00102287 3.99693138 3.34869747 5.02709413 1 7 C0.34 7 -0.32 7 -1 7 C-0.67 4.69 -0.34 2.38 0 0 Z " fill="#F4E855" transform="translate(169,136)"/>
<path d="M0 0 C3.3 0 6.6 0 10 0 C9.34 1.32 8.68 2.64 8 4 C8 3.01 8 2.02 8 1 C7.01 1 6.02 1 5 1 C4.67 1.99 4.34 2.98 4 4 C2.68 2.68 1.36 1.36 0 0 Z " fill="#EBD898" transform="translate(53,138)"/>
<path d="M0 0 C0.99 0 1.98 0 3 0 C3 1.98 3 3.96 3 6 C1.68 5.34 0.36 4.68 -1 4 C-0.67 2.68 -0.34 1.36 0 0 Z " fill="#E7DC9A" transform="translate(186,193)"/>
<path d="M0 0 C0.66 0 1.32 0 2 0 C2 2.97 2 5.94 2 9 C1.01 8.67 0.02 8.34 -1 8 C-1.6875 5.9375 -1.6875 5.9375 -2 4 C-1.01 4.33 -0.02 4.66 1 5 C0.67 3.35 0.34 1.7 0 0 Z " fill="#8D7F58" transform="translate(205,172)"/>
<path d="M0 0 C1.98 0 3.96 0 6 0 C6 1.65 6 3.3 6 5 C5.67 4.01 5.34 3.02 5 2 C4.01 2 3.02 2 2 2 C2 2.66 2 3.32 2 4 C1.34 4 0.68 4 0 4 C0 2.68 0 1.36 0 0 Z " fill="#F8DFA6" transform="translate(170,163)"/>
<path d="M0 0 C0.66 0 1.32 0 2 0 C2 0.66 2 1.32 2 2 C2.639375 2.12375 3.27875 2.2475 3.9375 2.375 C4.618125 2.58125 5.29875 2.7875 6 3 C6.33 3.66 6.66 4.32 7 5 C5.02 5 3.04 5 1 5 C0.67 3.35 0.34 1.7 0 0 Z " fill="#D1C85E" transform="translate(165,131)"/>
<path d="M0 0 C0.99 0 1.98 0 3 0 C3 1.98 3 3.96 3 6 C2.01 6 1.02 6 0 6 C0 4.02 0 2.04 0 0 Z " fill="#BB9F3E" transform="translate(260,182)"/>
<path d="M0 0 C0.33 1.32 0.66 2.64 1 4 C-0.65 4.33 -2.3 4.66 -4 5 C-4 3.68 -4 2.36 -4 1 C-2.68 0.67 -1.36 0.34 0 0 Z " fill="#C2AB4D" transform="translate(222,178)"/>
<path d="M0 0 C1.98 0 3.96 0 6 0 C6 0.99 6 1.98 6 3 C3.69 2.67 1.38 2.34 -1 2 C-0.67 1.34 -0.34 0.68 0 0 Z " fill="#EFE755" transform="translate(152,126)"/>
<path d="M0 0 C0.99 0.99 1.98 1.98 3 3 C2.67 3.99 2.34 4.98 2 6 C2 5.34 2 4.68 2 4 C0.68 4.33 -0.64 4.66 -2 5 C-2 3.68 -2 2.36 -2 1 C-1.34 0.67 -0.68 0.34 0 0 Z " fill="#D8BD68" transform="translate(239,175)"/>
<path d="M0 0 C0.66 0 1.32 0 2 0 C2 2.31 2 4.62 2 7 C0.68 6.34 -0.64 5.68 -2 5 C-1.34 3.35 -0.68 1.7 0 0 Z " fill="#E6E7BE" transform="translate(75,158)"/>
<path d="M0 0 C0.99 0 1.98 0 3 0 C3.33 1.65 3.66 3.3 4 5 C2.68 4.67 1.36 4.34 0 4 C0 2.68 0 1.36 0 0 Z " fill="#02010A" transform="translate(151,146)"/>
<path d="M0 0 C0.33 0.66 0.66 1.32 1 2 C2.32 2 3.64 2 5 2 C5 2.99 5 3.98 5 5 C3.35 5 1.7 5 0 5 C0 3.35 0 1.7 0 0 Z " fill="#F9EC95" transform="translate(99,139)"/>
<path d="M0 0 C1.32 0.33 2.64 0.66 4 1 C3.67 2.98 3.34 4.96 3 7 C2.34 7 1.68 7 1 7 C1.020625 6.21625 1.04125 5.4325 1.0625 4.625 C1.18684063 2.01885039 1.18684063 2.01885039 0 0 Z " fill="#E3D178" transform="translate(172,136)"/>
</svg>
